<?xml version="1.0" encoding="UTF-8"?>
<svg id="_레이어_2" data-name="레이어 2" xmlns="http://www.w3.org/2000/svg" viewBox="0 0 1997.16 806.44">
  <defs>
    <style>
      .cls-1 {
        stroke-width: 0px;
      }
    </style>
  </defs>
  <g id="textblock">
    <g id="tight-bounds">
      <g id="textblocktransform">
        <path id="text-0" class="cls-1" d="m312.88,806.44h0c-66.1,0-122.44-13.07-169-39.22-46.71-26-82.33-62.14-106.86-108.41C12.34,612.54,0,558.56,0,496.87h0c0-69.04,11.38-133.31,34.15-192.8,22.77-59.49,54.5-111.27,95.19-155.34,40.84-44.07,88.65-78.44,143.44-103.12,54.64-24.53,114.28-36.8,178.92-36.8h0c92.54,0,164.52,22.92,215.93,68.75,51.41,45.98,77.49,110.46,78.22,193.46h-156.44c-1.47-42.6-15.79-75.65-42.97-99.15s-66.1-35.25-116.78-35.25h0c-54.35,0-102.83,15.06-145.42,45.17-42.6,30.11-76.38,71.24-101.36,123.39-24.97,52.15-37.46,110.9-37.46,176.27h0c0,62.43,16.75,111.05,50.24,145.86,33.34,34.96,80.13,52.44,140.36,52.44h0c50.68,0,93.13-11.02,127.36-33.05,34.08-22.03,59.57-53.25,76.46-93.64h156.44c-29.38,80.06-77.63,142.27-144.76,186.63-67.28,44.51-146.82,66.76-238.63,66.76Zm602.63-13.22h-141.02L915.51,0h141.02l-141.02,793.22Zm348.14-627.97h0c-25.71,0-46.86-7.93-63.46-23.8-16.45-15.72-24.68-35.33-24.68-58.83h0c0-23.5,8.23-43.19,24.68-59.05,16.6-15.72,37.75-23.58,63.46-23.58h0c25.71,0,46.79,7.86,63.24,23.58,16.6,15.86,24.9,35.55,24.9,59.05h0c0,23.5-8.3,43.11-24.9,58.83-16.45,15.86-37.53,23.8-63.24,23.8Zm-55.08,627.97h-141.02l95.85-546.44h141.02l-95.85,546.44Zm472.41,13.22h0c-40.4,0-75.06-8.67-104-26-29.08-17.19-50.6-37.9-64.56-62.14h0l-28.64,74.92h-125.59L1498.09,0h141.02l-55.08,316.19c20.57-22.77,46.49-42.23,77.78-58.39,31.14-16.16,68.75-24.24,112.81-24.24h0c44.8,0,83.73,10.28,116.78,30.85s58.98,48.62,77.78,84.17c18.66,35.69,27.98,75.94,27.98,120.75h0c0,47.01-8.08,90.93-24.24,131.76-16.16,40.69-38.56,76.46-67.2,107.31-28.64,30.85-62.06,54.86-100.25,72.05-38.19,17.33-79.69,26-124.49,26Zm-7.71-123.39h0c33.79,0,64.12-8.3,91-24.9,26.73-16.45,47.81-39,63.24-67.64,15.42-28.64,23.14-60.96,23.14-96.95h0c0-38.93-11.75-71.46-35.25-97.61-23.5-26-55.45-39-95.85-39h0c-33.79,0-64.05,8.45-90.78,25.34-26.88,16.89-48.03,40.03-63.46,69.41-15.42,29.38-23.14,62.43-23.14,99.15h0c0,38.19,11.97,69.77,35.92,94.75,23.8,24.97,55.53,37.46,95.19,37.46Z"/>
      </g>
    </g>
  </g>
</svg>