<?xml version="1.0" encoding="UTF-8"?>
<svg id="_레이어_2" data-name="레이어 2" xmlns="http://www.w3.org/2000/svg" viewBox="0 0 997.22 369.97">
  <defs>
    <style>
      .cls-1, .cls-2 {
        stroke-width: 0px;
      }

      .cls-2 {
        fill: #fff;
        opacity: 0;
      }
    </style>
  </defs>
  <g id="textblock">
    <rect class="cls-2" width="997.22" height="369.97"/>
    <g id="tight-bounds">
      <g id="textblocktransform">
        <path id="text-0" class="cls-1" d="m144.77,368.51c-27.3,0-51.83-5.04-73.6-15.11-21.77-10.07-39.06-24.96-51.86-44.65C6.43,289.12,0,265.33,0,237.39h0c0-19.5,3.41-40.62,10.24-63.37h0c14.95-48.74,37.53-83.94,67.76-105.58,30.22-21.58,62.56-32.37,97-32.37h0c18.52,0,34.93,2.76,49.23,8.29,14.3,5.52,27.46,13.49,39.48,23.88h0l13.16-10.24c8.77-6.82,16.18-11.54,22.23-14.14,5.98-2.6,12.71-3.9,20.18-3.9h0c8.12,0,14.62,1.79,19.5,5.36,4.87,3.57,7.31,8.77,7.31,15.6h0c0,3.57-.65,7.15-1.95,10.72h0l-27.3,76.04c-2.92,8.77-6.4,14.95-10.43,18.52-4.09,3.57-10.2,5.36-18.33,5.36h0c-8.45,0-15.34-3.02-20.67-9.07-5.39-5.98-11.5-16.28-18.33-30.9h0c-7.8-15.27-14.14-25.35-19.01-30.22s-12.02-7.31-21.45-7.31h0c-13.32,0-26.16,8.19-38.51,24.57-12.35,16.44-23.56,41.08-33.63,73.9h0c-8.45,27.62-12.67,50.69-12.67,69.22h0c0,16.25,3.09,28.34,9.26,36.27,6.17,7.99,14.46,11.99,24.86,11.99h0c15.27,0,27.88-3.41,37.83-10.24,9.88-6.82,20.02-16.09,30.42-27.78h0c6.5-7.15,11.8-12.45,15.89-15.89,4.03-3.38,8.32-5.07,12.87-5.07h0c5.85,0,12.02,2.92,18.52,8.77,6.5,5.85,9.59,11.7,9.26,17.55h0c.32,7.15-5.43,18.2-17.26,33.15-11.89,14.95-28.3,28.34-49.23,40.17-20.99,11.89-44.81,17.84-71.46,17.84h0ZM467.95,5.36c18.85,0,32.72,3.57,41.63,10.72,8.97,7.15,13.45,16.9,13.45,29.25h0c0,7.15-1.14,14.14-3.41,20.96h0l-76.53,248.6c-.97,3.9-1.46,7.31-1.46,10.24h0c0,4.22.81,7.54,2.44,9.94,1.62,2.47,3.9,4.84,6.82,7.12h0c2.27,2.27,3.9,4.13,4.87,5.56.97,1.49,1.14,3.38.49,5.65h0c-1.62,4.22-4.87,7.31-9.75,9.26-4.87,1.95-12.35,2.92-22.42,2.92h-111.14c-8.45,0-14.62-1.4-18.52-4.19-3.9-2.73-5.2-6.37-3.9-10.92h0c1.3-3.9,4.71-7.31,10.24-10.24h0c4.87-2.6,8.94-5.69,12.19-9.26,3.25-3.57,6.01-9.26,8.29-17.06h0l74.09-243.24c.97-2.92,1.46-5.36,1.46-7.31h0c0-3.57-.91-6.5-2.73-8.77-1.75-2.27-4.09-4.55-7.02-6.82h0c-3.25-2.6-5.62-4.87-7.12-6.82-1.43-1.95-1.66-4.55-.68-7.8h0c1.95-7.47,12.19-13.97,30.71-19.5,18.52-5.52,37.86-8.29,58.01-8.29h0Zm149.65,102.36c18.85,0,32.66,3.57,41.43,10.72,8.77,7.15,13.16,16.9,13.16,29.25h0c0,7.47-1.14,14.62-3.41,21.45h0l-44.85,145.75c-.97,3.9-1.46,7.31-1.46,10.24h0c0,4.22.81,7.54,2.44,9.94,1.62,2.47,3.9,4.84,6.82,7.12h0c2.27,2.27,3.9,4.13,4.87,5.56.97,1.49,1.14,3.38.49,5.65h0c-1.62,4.22-4.87,7.31-9.75,9.26-4.87,1.95-12.35,2.92-22.42,2.92h-111.14c-8.45,0-14.62-1.4-18.52-4.19-3.9-2.73-5.2-6.37-3.9-10.92h0c1.3-3.9,4.71-7.31,10.24-10.24h0c4.87-2.6,8.94-5.69,12.19-9.26,3.25-3.57,6.01-9.26,8.29-17.06h0l42.41-140.87c.97-2.92,1.46-5.36,1.46-7.31h0c0-3.57-.81-6.43-2.44-8.58-1.62-2.08-4.06-4.26-7.31-6.53h0c-3.25-2.6-5.52-4.87-6.82-6.82s-1.46-4.55-.49-7.8h0c1.95-7.47,12.19-14.07,30.71-19.79,18.52-5.65,37.86-8.48,58.01-8.48h0ZM650.26,0c12.67,0,23.24,4.13,31.68,12.38,8.45,8.32,12.67,18.49,12.67,30.51h0c0,8.45-2.21,16.74-6.63,24.86-4.35,8.12-10.53,14.69-18.52,19.69-7.93,5.07-16.77,7.6-26.52,7.6h0c-12.35,0-22.68-4.16-31-12.48-8.25-8.25-12.54-18.56-12.87-30.9h0c0-8.12,2.11-16.18,6.34-24.18,4.22-7.93,10.24-14.49,18.04-19.69s16.74-7.8,26.81-7.8h0Zm267.51,105.78c24.05,0,43.32,8.61,57.81,25.83,14.43,17.22,21.64,39.97,21.64,68.24h0c0,14.62-1.79,28.92-5.36,42.9h0c-10.4,41.92-28.17,73.6-53.33,95.05-25.22,21.45-54.24,32.17-87.06,32.17h0c-18.52,0-34.51-3.18-47.96-9.55-13.52-6.3-24.34-15.31-32.46-27h0l-17.55,15.11c-6.82,5.85-13.49,10.14-19.99,12.87-6.5,2.79-13.97,4.19-22.42,4.19h-21.45c-8.12,0-14.36-1.72-18.72-5.17-4.42-3.38-6.63-8.32-6.63-14.82h0c0-2.92.49-6.34,1.46-10.24h0l81.4-264.68c.97-2.92,1.46-5.36,1.46-7.31h0c0-5.52-3.41-10.72-10.24-15.6h0c-3.25-2.92-5.52-5.3-6.82-7.12-1.3-1.75-1.46-4.09-.49-7.02h0c2.27-7.47,12.61-14.07,31-19.79,18.33-5.65,37.57-8.48,57.71-8.48h0c18.85,0,32.76,3.64,41.73,10.92,8.9,7.34,13.36,17.19,13.36,29.54h0c0,6.82-1.14,13.65-3.41,20.47h0l-20.47,66.29c18.85-17.87,41.11-26.81,66.78-26.81h0Zm-55.08,134.05c6.5-22.1,9.75-39.97,9.75-53.62h0c0-14.95-4.39-22.42-13.16-22.42h0c-7.8,0-15.11,4.06-21.94,12.19h0l-31.68,103.34-2.92,9.26h0c-1.62,4.87-2.44,9.91-2.44,15.11h0c0,11.37,5.36,17.06,16.09,17.06h0c7.8,0,15.27-5.69,22.42-17.06,7.15-11.37,15.11-32.66,23.89-63.86h0Z"/>
      </g>
    </g>
  </g>
</svg>