<?xml version="1.0" encoding="utf-8"?>
<!-- Generator: Adobe Illustrator 24.0.1, SVG Export Plug-In . SVG Version: 6.00 Build 0)  -->
<svg version="1.1" id="Layer_1" xmlns="http://www.w3.org/2000/svg" xmlns:xlink="http://www.w3.org/1999/xlink" x="0px" y="0px"
	 viewBox="0 0 45.6 42.11" enable-background="new 0 0 45.6 42.11" xml:space="preserve">
<g>
	<polygon fill="#ffffff" points="3.77,0 0,0 0,42.11 1.38,42.11 1.38,42.11 23.49,42.11 23.49,38.34 3.77,38.34 	"/>
	<rect x="41.83" y="0.1" fill="#ffffff" width="3.77" height="42.01"/>
	<rect x="9.55" y="3.96" fill="#ffffff" width="26.09" height="3.77"/>
	<path fill="#ffffff" d="M34.92,30.34c0-3.38-2.75-6.12-6.12-6.12c-3.38,0-6.12,2.75-6.12,6.12c0,3.38,2.75,6.12,6.12,6.12
		c1.35,0,2.6-0.45,3.61-1.19l3.69,3.7l1.66-1.66l-3.76-3.76C34.58,32.61,34.92,31.51,34.92,30.34z M25.04,30.34
		c0-2.08,1.69-3.77,3.77-3.77s3.77,1.69,3.77,3.77c0,2.08-1.69,3.77-3.77,3.77S25.04,32.42,25.04,30.34z"/>
	<rect x="9.55" y="11.5" fill="#ffffff" width="26.09" height="2.51"/>
	<rect x="9.55" y="18.41" fill="#ffffff" width="26.09" height="2.51"/>
	<rect x="9.55" y="28.66" fill="#ffffff" width="6.82" height="2.51"/>
</g>
</svg>
