<?xml version="1.0" encoding="utf-8"?>
<!-- Svg Vector Icons : http://www.onlinewebfonts.com/icon -->
<!DOCTYPE svg PUBLIC "-//W3C//DTD SVG 1.1//EN" "http://www.w3.org/Graphics/SVG/1.1/DTD/svg11.dtd">
<svg version="1.1" xmlns="http://www.w3.org/2000/svg" xmlns:xlink="http://www.w3.org/1999/xlink" x="0px" y="0px" viewBox="0 0 256 256" enable-background="new 0 0 256 256" xml:space="preserve">
<metadata> Svg Vector Icons : http://www.onlinewebfonts.com/icon </metadata>
<g><g><g><path fill="#ffffff" d="M42.4,10.5c-0.6,0.3-1.7,0.9-2.2,1.5c-2.6,2.4-2.4-5.6-2.4,116.2v112.6l1,1.5c0.6,0.8,1.7,2,2.4,2.5c1.3,1,1.4,1,47.3,1h46l1.3-1.3c1.3-1.2,1.3-1.4,1.3-5.9v-4.7l-1.5-1.3l-1.5-1.3H93.3H52.5V128V24.8h48.8h48.8v22.8c0,15,0.2,23.5,0.5,24.7c0.3,1,1.1,2.5,1.7,3.2c2.5,2.6,2.2,2.6,27.6,2.6h23.4v35.4c0,39.3-0.1,37.6,3,38.9c2,0.8,6.8,0.8,8.7,0c3.3-1.3,3.1,1.6,3.1-43.2c0-39,0-40.5-0.9-42.1c-1.3-2.5-54.5-55.4-56.6-56.3c-1.5-0.6-8.5-0.7-59.5-0.6C64.1,10,43.1,10.2,42.4,10.5z M179.3,49.5L193,63.2h-13.8h-13.7V49.5c0-7.5,0-13.7,0.1-13.7C165.6,35.9,171.9,42,179.3,49.5z"/><path fill="#ffffff" d="M157.9,170.9c-9.9,9.9-18.6,18.9-19.3,20c-3.8,5.8,1.3,12.9,8.1,11.2c1.7-0.5,3.5-2.1,12.6-11.2c5.9-5.8,10.8-10.6,11-10.6c0.1,0,0.4,13.8,0.4,30.6c0.1,29.9,0.2,30.7,1.1,31.9c1.2,1.6,4.2,3.1,6.2,3.1c2.2,0,4.9-1.6,6.1-3.6l1.1-1.8l0.1-30.3l0.1-30.3l10.7,10.7c9.3,9.3,11,10.8,12.8,11.2c6.1,1.6,11.3-4.6,8.6-10.4c-0.4-0.8-9.1-9.8-19.3-20.1c-18.2-18.2-18.7-18.6-20.5-18.6C175.9,153,175.5,153.4,157.9,170.9z"/></g></g></g>
</svg>